<svg xmlns="http://www.w3.org/2000/svg" viewBox="0 0 32 32" fill="none">
  <defs>
    <linearGradient id="bg" x1="0" y1="0" x2="32" y2="32" gradientUnits="userSpaceOnUse">
      <stop offset="0%" stop-color="#1e3a8a"/>
      <stop offset="100%" stop-color="#2563eb"/>
    </linearGradient>
    <linearGradient id="letter" x1="0" y1="0" x2="32" y2="32" gradientUnits="userSpaceOnUse">
      <stop offset="0%" stop-color="#93c5fd"/>
      <stop offset="100%" stop-color="#ffffff"/>
    </linearGradient>
  </defs>

  <!-- Background rounded square -->
  <rect width="32" height="32" rx="8" fill="url(#bg)"/>

  <!-- Letter G -->
  <path
    d="M20.5 11.5
       C19.2 10.2 17.7 9.5 16 9.5
       C12.4 9.5 9.5 12.4 9.5 16
       C9.5 19.6 12.4 22.5 16 22.5
       C18.5 22.5 20.7 21.1 21.8 19
       L17 19
       L17 16.5
       L24 16.5
       L24 16
       C24 11.6 20.4 8 16 8
       C11.6 8 8 11.6 8 16
       C8 20.4 11.6 24 16 24
       C18.8 24 21.3 22.6 22.8 20.5"
    stroke="url(#letter)"
    stroke-width="1.8"
    stroke-linecap="round"
    stroke-linejoin="round"
    fill="none"
  />
</svg>
